<svg width="80" height="80" viewBox="0 0 80 80" fill="none" xmlns="http://www.w3.org/2000/svg">
<path d="M39.9469 17.5C27.7688 17.5 15.2766 24.5484 5.44221 38.6453C5.1615 39.0521 5.00768 39.533 5.00017 40.0272C4.99266 40.5214 5.13181 41.0067 5.40003 41.4219C12.9563 53.25 25.2813 62.5 39.9469 62.5C54.4532 62.5 67.0313 53.2219 74.6016 41.3672C74.8635 40.9602 75.0028 40.4864 75.0028 40.0023C75.0028 39.5183 74.8635 39.0445 74.6016 38.6375C67.0141 26.9187 54.3438 17.5 39.9469 17.5Z" stroke="#39352D" stroke-width="4" stroke-linecap="round" stroke-linejoin="round"/>
<path d="M40 52.5C46.9036 52.5 52.5 46.9036 52.5 40C52.5 33.0964 46.9036 27.5 40 27.5C33.0964 27.5 27.5 33.0964 27.5 40C27.5 46.9036 33.0964 52.5 40 52.5Z" stroke="#39352D" stroke-width="4" stroke-miterlimit="10"/>
</svg>
