<svg width="80" height="80" viewBox="0 0 80 80" fill="none" xmlns="http://www.w3.org/2000/svg">
<path d="M10 40C10 40 7.5 39.0625 7.5 35C7.5 30.9375 10 30 10 30M70 38.4375C70 38.4375 72.5 37.7609 72.5 35C72.5 32.2391 70 31.5625 70 31.5625M40 25V45M17.5 25V45M63.7406 8.15938C63.7406 8.15938 50.2031 25 37.5 25H12.5C11.837 25 11.2011 25.2634 10.7322 25.7322C10.2634 26.2011 10 26.837 10 27.5V42.5C10 43.163 10.2634 43.7989 10.7322 44.2678C11.2011 44.7366 11.837 45 12.5 45H37.5C50.2031 45 63.7406 61.9109 63.7406 61.9109C64.6875 63.1609 67.5 62.3047 67.5 60.375V9.6875C67.5 7.76406 64.8438 6.74688 63.7406 8.15938Z" stroke="#39352D" stroke-width="4" stroke-linecap="round" stroke-linejoin="round"/>
<path d="M22.5 45V71.25C22.5 71.5815 22.6317 71.8995 22.8661 72.1339C23.1005 72.3683 23.4185 72.5 23.75 72.5H32.0312C32.4229 72.5001 32.8091 72.4082 33.1587 72.2318C33.5083 72.0553 33.8115 71.7991 34.044 71.484C34.2764 71.1688 34.4316 70.8034 34.497 70.4173C34.5623 70.0311 34.5361 69.6351 34.4203 69.2609C33.1109 65.0609 30 60.325 30 52.5H32.5C33.163 52.5 33.7989 52.2366 34.2678 51.7678C34.7366 51.2989 35 50.663 35 50V47.5C35 46.837 34.7366 46.2011 34.2678 45.7322C33.7989 45.2634 33.163 45 32.5 45H30" stroke="#39352D" stroke-width="4" stroke-linecap="round" stroke-linejoin="round"/>
</svg>
