<svg width="80" height="80" viewBox="0 0 80 80" fill="none" xmlns="http://www.w3.org/2000/svg">
<path d="M63.75 10H16.25C13.9314 10.0066 11.7096 10.9306 10.0701 12.5701C8.43059 14.2096 7.5066 16.4314 7.5 18.75V48.75C7.5066 51.0686 8.43059 53.2904 10.0701 54.9299C11.7096 56.5694 13.9314 57.4934 16.25 57.5H22.5V70L37.1438 57.7906C37.3686 57.6028 37.6523 57.4999 37.9453 57.5H63.75C66.0686 57.4934 68.2904 56.5694 69.9299 54.9299C71.5694 53.2904 72.4934 51.0686 72.5 48.75V18.75C72.4934 16.4314 71.5694 14.2096 69.9299 12.5701C68.2904 10.9306 66.0686 10.0066 63.75 10Z" stroke="#39352D" stroke-width="4" stroke-linejoin="round"/>
<path d="M25 38.75C27.7614 38.75 30 36.5114 30 33.75C30 30.9886 27.7614 28.75 25 28.75C22.2386 28.75 20 30.9886 20 33.75C20 36.5114 22.2386 38.75 25 38.75Z" fill="#39352D"/>
<path d="M40 38.75C42.7614 38.75 45 36.5114 45 33.75C45 30.9886 42.7614 28.75 40 28.75C37.2386 28.75 35 30.9886 35 33.75C35 36.5114 37.2386 38.75 40 38.75Z" fill="#39352D"/>
<path d="M55 38.75C57.7614 38.75 60 36.5114 60 33.75C60 30.9886 57.7614 28.75 55 28.75C52.2386 28.75 50 30.9886 50 33.75C50 36.5114 52.2386 38.75 55 38.75Z" fill="#39352D"/>
</svg>
