<svg width="80" height="80" viewBox="0 0 80 80" fill="none" xmlns="http://www.w3.org/2000/svg">
<path d="M70 10H10C7.23858 10 5 12.2386 5 15V55C5 57.7614 7.23858 60 10 60H70C72.7614 60 75 57.7614 75 55V15C75 12.2386 72.7614 10 70 10Z" stroke="#39352D" stroke-width="4" stroke-linejoin="round"/>
<path d="M47.5 70L46.25 60H33.75L32.5 70H47.5Z" fill="#39352D" stroke="#39352D" stroke-width="4" stroke-linecap="round" stroke-linejoin="round"/>
<path d="M57.5 70H22.5" stroke="#39352D" stroke-width="4" stroke-linecap="round" stroke-linejoin="round"/>
<path d="M5 47.5V55C5.00371 56.3249 5.53169 57.5946 6.46857 58.5314C7.40544 59.4683 8.67506 59.9963 10 60H70C71.3249 59.9963 72.5946 59.4683 73.5314 58.5314C74.4683 57.5946 74.9963 56.3249 75 55V47.5H5ZM40 57.5C39.5055 57.5 39.0222 57.3534 38.6111 57.0787C38.2 56.804 37.8795 56.4135 37.6903 55.9567C37.5011 55.4999 37.4516 54.9972 37.548 54.5123C37.6445 54.0273 37.8826 53.5819 38.2322 53.2322C38.5819 52.8826 39.0273 52.6445 39.5123 52.548C39.9972 52.4516 40.4999 52.5011 40.9567 52.6903C41.4135 52.8795 41.804 53.2 42.0787 53.6111C42.3534 54.0222 42.5 54.5055 42.5 55C42.5 55.663 42.2366 56.2989 41.7678 56.7678C41.2989 57.2366 40.663 57.5 40 57.5Z" fill="#39352D"/>
</svg>
