<svg width="80" height="80" viewBox="0 0 80 80" fill="none" xmlns="http://www.w3.org/2000/svg">
<path d="M53.75 43.75L67.5 30M36.25 33.75L46.25 43.75M12.5 50L28.75 33.75" stroke="#39352D" stroke-width="4" stroke-linecap="round" stroke-linejoin="round"/>
<path d="M71.25 30C73.3211 30 75 28.3211 75 26.25C75 24.1789 73.3211 22.5 71.25 22.5C69.1789 22.5 67.5 24.1789 67.5 26.25C67.5 28.3211 69.1789 30 71.25 30Z" stroke="#39352D" stroke-width="4" stroke-linecap="round" stroke-linejoin="round"/>
<path d="M50 51.25C52.0711 51.25 53.75 49.5711 53.75 47.5C53.75 45.4289 52.0711 43.75 50 43.75C47.9289 43.75 46.25 45.4289 46.25 47.5C46.25 49.5711 47.9289 51.25 50 51.25Z" stroke="#39352D" stroke-width="4" stroke-linecap="round" stroke-linejoin="round"/>
<path d="M32.5 33.75C34.5711 33.75 36.25 32.0711 36.25 30C36.25 27.9289 34.5711 26.25 32.5 26.25C30.4289 26.25 28.75 27.9289 28.75 30C28.75 32.0711 30.4289 33.75 32.5 33.75Z" stroke="#39352D" stroke-width="4" stroke-linecap="round" stroke-linejoin="round"/>
<path d="M8.75 57.5C10.8211 57.5 12.5 55.8211 12.5 53.75C12.5 51.6789 10.8211 50 8.75 50C6.67893 50 5 51.6789 5 53.75C5 55.8211 6.67893 57.5 8.75 57.5Z" stroke="#39352D" stroke-width="4" stroke-linecap="round" stroke-linejoin="round"/>
</svg>
